<?xml version="1.0" encoding="UTF-8" standalone="no"?>
<svg
   xmlns:dc="http://purl.org/dc/elements/1.1/"
   xmlns:cc="http://creativecommons.org/ns#"
   xmlns:rdf="http://www.w3.org/1999/02/22-rdf-syntax-ns#"
   xmlns:svg="http://www.w3.org/2000/svg"
   xmlns="http://www.w3.org/2000/svg"
   id="svg8"
   version="1.1"
   viewBox="0 0 210 210"
   height="210mm"
   width="210mm">
  <defs
     id="defs2" />
  <metadata
     id="metadata5">
    <rdf:RDF>
      <cc:Work
         rdf:about="">
        <dc:format>image/svg+xml</dc:format>
        <dc:type
           rdf:resource="http://purl.org/dc/dcmitype/StillImage" />
        <dc:title></dc:title>
      </cc:Work>
    </rdf:RDF>
  </metadata>
  <g
     transform="translate(0,-87)"
     id="layer1">
    <path
       style="fill:#f9f9f9;fill-opacity:1;stroke-width:0.13529116"
       id="path4"
       d="m 99.200841,296.86587 c -7.592742,-0.59875 -14.506564,-1.85221 -21.366101,-3.87344 -0.517356,-0.15253 -1.24297,-0.36566 -1.612563,-0.47376 -1.34996,-0.39494 -4.851759,-1.60502 -5.77837,-1.99687 -0.147814,-0.0626 -0.782771,-0.30452 -1.410964,-0.53777 -0.628225,-0.23327 -1.26313,-0.47863 -1.410968,-0.54522 -0.147806,-0.0666 -0.661824,-0.28484 -1.142277,-0.48496 -2.094084,-0.8723 -3.545789,-1.55367 -6.450253,-3.02733 -2.168738,-1.10041 -2.989719,-1.53762 -4.904889,-2.61199 -0.354631,-0.19897 -2.073086,-1.22397 -2.822038,-1.68335 -0.147764,-0.0906 -0.556132,-0.36407 -0.907372,-0.60755 -0.351241,-0.24349 -0.673365,-0.44269 -0.715837,-0.44269 -0.114921,0 -3.230378,-2.12319 -4.123073,-2.8098 -0.425809,-0.32751 -0.810554,-0.59549 -0.854999,-0.59549 -0.07664,0 -0.417086,-0.26247 -3.391129,-2.61492 -3.369501,-2.6652 -5.714007,-4.78199 -9.166874,-8.27659 -4.292855,-4.34457 -8.106392,-8.89389 -11.210665,-13.37276 -1.399942,-2.01997 -1.679761,-2.45983 -1.679761,-2.64033 0,-0.11083 -0.120939,-0.32419 -0.268753,-0.47402 -0.147777,-0.14979 -0.268755,-0.31262 -0.268755,-0.36173 0,-0.0491 -0.151103,-0.29023 -0.335962,-0.53578 -0.184777,-0.24556 -0.335954,-0.52886 -0.335954,-0.62958 0,-0.10067 -0.104589,-0.33439 -0.23237,-0.51935 -0.180463,-0.26118 -0.232994,-0.62838 -0.235176,-1.64409 -0.0016,-0.71929 0.06545,-1.45508 0.148721,-1.63506 0.08331,-0.17998 0.226942,-0.65676 0.319098,-1.05953 0.09221,-0.40273 1.133456,-2.73199 2.313848,-5.17607 1.180494,-2.44419 2.571511,-5.33271 3.091149,-6.41906 0.519697,-1.08632 1.414641,-2.95584 1.988666,-4.15451 0.574088,-1.19868 1.480791,-3.09886 2.014917,-4.22267 0.534147,-1.1237 1.425036,-2.99333 1.979743,-4.15452 1.001756,-2.09694 2.088836,-4.39277 3.192576,-6.74255 0.316717,-0.67427 1.194146,-2.51317 1.949818,-4.08638 0.755683,-1.57321 1.8129,-3.77988 2.349337,-4.9037 0.536467,-1.12372 1.624322,-3.39168 2.417584,-5.03989 0.79321,-1.64816 1.821091,-3.7935 2.284133,-4.7675 0.463051,-0.97393 2.860048,-5.87766 5.326666,-10.89686 2.466621,-5.01951 4.841154,-9.89254 5.276688,-10.82861 0.435575,-0.93648 1.317727,-2.80601 1.960213,-4.15452 0.642546,-1.34851 1.555758,-3.27935 2.029301,-4.29071 0.473574,-1.01138 1.839254,-3.80034 3.03487,-6.1977 1.195615,-2.39736 2.39879,-4.87985 2.673885,-5.51669 1.162647,-2.69208 3.282456,-4.53777 5.232274,-4.55572 1.091772,-0.009 2.035391,0.47386 3.208327,1.64534 l 0.912298,0.91122 3.760513,7.70813 c 2.068256,4.23946 3.817421,7.79998 3.886931,7.91245 0.06958,0.11244 0.162526,0.29626 0.206668,0.40864 0.04419,0.11231 0.552081,1.18503 1.128729,2.3837 0.576685,1.19868 1.515442,3.16018 2.086108,4.35885 0.570646,1.19867 1.657501,3.46667 2.415169,5.03989 1.878105,3.89978 5.421901,11.31474 6.412454,13.41684 0.300033,0.6368 2.918217,6.00021 5.818266,11.91851 2.900052,5.91852 5.591152,11.43551 5.980272,12.25977 0.38907,0.82409 1.32384,2.78553 2.07697,4.35884 0.75324,1.57332 1.60333,3.38153 1.88913,4.01833 0.2857,0.63681 1.03109,2.16918 1.65634,3.40536 4.25937,8.4217 4.98669,10.04889 5.09326,11.39666 0.0649,0.8198 0.0504,0.87193 -0.34867,1.24981 -0.22897,0.21689 -0.6006,0.43168 -0.82585,0.47731 -0.74605,0.15124 -15.601669,0.25286 -17.539935,0.11986 -2.13682,-0.14655 -3.452553,-0.52221 -4.348817,-1.24173 -0.533928,-0.42862 -1.086102,-1.46976 -3.584013,-6.75746 -0.424697,-0.89901 -1.282238,-2.69943 -1.905612,-4.0009 -0.623376,-1.30147 -1.364243,-2.89516 -1.646268,-3.54153 -0.282077,-0.6464 -0.754853,-1.69627 -1.050614,-2.33309 -0.295748,-0.63678 -1.414851,-3.08868 -2.486883,-5.44853 -1.072031,-2.35988 -2.163489,-4.7584 -2.425563,-5.32977 -1.271843,-2.7735 -2.426091,-5.26387 -3.232374,-6.97388 -0.488409,-1.03582 -0.888012,-1.90565 -0.888012,-1.93284 0,-0.0498 -0.604055,-1.36299 -1.847339,-4.01613 -0.368638,-0.78663 -1.198029,-2.65619 -1.843139,-4.15451 -0.64511,-1.49837 -1.257879,-2.91744 -1.361618,-3.15346 -0.103759,-0.2361 -0.188692,-0.47246 -0.188692,-0.52527 0,-0.20432 -0.830924,-1.14638 -1.082532,-1.22734 -0.161161,-0.0519 -0.446337,0.0281 -0.726495,0.20357 -0.40611,0.25441 -0.833307,1.04851 -3.577396,6.65025 -1.713886,3.4987 -3.749801,7.67927 -4.524058,9.28995 -0.774343,1.6107 -2.285182,4.73686 -3.357424,6.94689 -1.072242,2.21003 -2.220505,4.60067 -2.551563,5.31235 -0.331145,0.71171 -1.103847,2.33603 -1.717038,3.60966 -0.613231,1.27356 -1.462415,3.05121 -1.887028,3.95021 -0.424657,0.899 -1.193306,2.52335 -1.708217,3.60969 -3.223551,6.80155 -5.305563,11.5237 -5.433555,12.32275 -0.08842,0.55188 0.148079,0.90188 2.43428,3.6042 3.025419,3.5761 6.023121,6.57247 9.803476,9.79922 2.107842,1.79916 4.816691,3.83322 5.055352,3.79593 0.110858,-0.0174 0.188503,0.0389 0.172523,0.12485 -0.04456,0.23983 3.667065,2.69755 6.815228,4.51289 2.127684,1.22692 6.63568,3.44641 9.033105,4.44737 5.716526,2.38683 12.361445,4.27243 18.025054,5.11505 1.024067,0.15234 1.991605,0.30787 2.150047,0.34557 0.158473,0.0377 1.285912,0.16372 2.505466,0.28003 6.796954,0.64824 13.670764,0.51708 18.947994,-0.36151 9.65018,-1.6066 14.04036,-2.85977 21.39234,-6.10594 0.86428,-0.38161 1.60143,-0.69383 1.63807,-0.69383 0.18553,0 4.71663,-2.23923 6.33161,-3.12898 1.817,-1.00112 3.77039,-2.27577 7.64639,-4.98949 3.36877,-2.35861 4.89576,-3.69651 9.15124,-8.01777 4.52637,-4.59627 5.93944,-6.17294 8.24488,-9.19945 3.41276,-4.47991 7.25547,-11.12785 9.48733,-16.41354 0.34793,-0.82409 0.71846,-1.69153 0.82328,-1.92758 0.10508,-0.2361 0.19066,-0.472 0.19066,-0.52428 0,-0.0523 0.0883,-0.2882 0.19642,-0.52427 0.26504,-0.57891 1.41612,-3.78136 1.41612,-3.9397 0,-0.0693 0.0875,-0.31929 0.19433,-0.55537 0.10679,-0.23608 0.28546,-0.76634 0.39673,-1.17841 0.11124,-0.41203 0.33201,-1.17819 0.49059,-1.70267 0.15859,-0.52443 0.4613,-1.70761 0.67264,-2.62929 0.21147,-0.92167 0.50571,-2.17823 0.65387,-2.79236 0.6784,-2.81116 0.91207,-4.57359 1.62044,-12.22197 0.37271,-4.02567 0.35469,-7.30829 -0.0652,-11.8933 -0.18413,-2.01116 -0.35874,-3.69683 -0.38774,-3.74587 -0.0289,-0.049 -0.12244,-0.76351 -0.20741,-1.5876 -0.19761,-1.91707 -0.86601,-5.47877 -1.50821,-8.03658 -0.62573,-2.49245 -1.90991,-6.75724 -2.13271,-7.08305 -0.0517,-0.0749 -0.13629,-0.32009 -0.18895,-0.54483 -0.22507,-0.95971 -2.34189,-6.07108 -3.56471,-8.60726 -6.55272,-13.5901 -16.83856,-25.28284 -29.19897,-33.19248 -0.42501,-0.27195 -1.09029,-0.69829 -1.47815,-0.94746 -2.08948,-1.34168 -3.23239,-1.97976 -6.28236,-3.50721 -2.73111,-1.36783 -3.70602,-1.82131 -5.24077,-2.43787 -0.40648,-0.16332 -0.92052,-0.38002 -1.14218,-0.48156 -0.22182,-0.10155 -0.55439,-0.22633 -0.73917,-0.27727 -0.18471,-0.051 -0.51733,-0.17244 -0.73909,-0.27002 -1.20203,-0.52902 -4.76997,-1.65889 -7.99562,-2.53217 -3.15529,-0.85413 -8.82205,-1.83446 -13.03447,-2.25499 -3.49707,-0.34902 -11.01642,-0.34902 -14.512869,0 -4.519852,0.45114 -9.805676,1.36542 -13.101676,2.26632 -2.231004,0.60969 -2.827812,0.77699 -3.023531,0.84764 -0.110856,0.04 -1.16905,0.39059 -2.351647,0.77909 -1.182594,0.38852 -2.271006,0.76146 -2.418844,0.82879 -0.478666,0.21799 -2.03434,0.81781 -2.12107,0.81781 -0.164027,0 -4.624543,2.0814 -6.479338,3.02346 -7.539714,3.82944 -14.752256,9.12383 -20.832705,15.29215 -3.855116,3.91102 -6.739628,7.47828 -9.861751,12.19675 -3.781092,5.71367 -6.190172,10.36221 -8.541924,16.48181 -1.659919,4.31957 -3.410345,10.5766 -3.951294,14.12453 -0.05938,0.38927 -0.209011,0.84897 -0.332563,1.0216 -0.123478,0.17262 -0.35988,0.51237 -0.525149,0.755 -0.538325,0.79028 -1.637762,0.7764 -2.499273,-0.0315 l -0.513316,-0.4814 -0.08297,-3.97529 c -0.0784,-3.75436 -0.06839,-4.00889 0.180189,-4.57862 0.144749,-0.33183 0.263294,-0.6602 0.263294,-0.7297 0,-0.0694 0.113953,-0.3835 0.25339,-0.69783 0.259641,-0.58551 1.126212,-3.02544 1.291375,-3.63623 0.106509,-0.39368 0.714713,-1.99027 0.878477,-2.306 0.486006,-0.93706 1.474702,-3.10557 1.474281,-3.23368 -5.38e-4,-0.18591 0.18716,-0.58904 1.353112,-2.90555 1.141856,-2.26884 1.508092,-3.20323 1.678399,-4.28293 0.29283,-1.85639 0.89133,-3.32659 1.76754,-4.34216 0.643346,-0.7456 3.121282,-4.30361 3.439113,-4.93812 0.115226,-0.23022 0.304337,-0.49824 0.420078,-0.59559 0.115708,-0.0973 0.210426,-0.26797 0.210426,-0.37912 0,-0.11117 0.168953,-0.42546 0.375443,-0.69844 0.206509,-0.273 0.452793,-0.67759 0.547304,-0.89911 0.09458,-0.22154 0.277047,-0.47744 0.405585,-0.56869 0.391089,-0.27767 0.99278,-1.25529 0.908929,-1.47673 -0.143806,-0.37982 -0.849099,-0.24789 -1.407292,0.26324 -0.66675,0.6106 -1.724071,1.37361 -2.264181,1.63381 -1.421993,0.68518 -3.541488,3.49626 -3.871075,5.13418 -0.342034,1.69929 -0.856493,2.78184 -3.740355,7.86991 -0.725286,1.27963 -1.50221,2.74028 -1.726486,3.24596 -0.224246,0.50558 -0.650885,1.44029 -0.948061,2.0771 -0.297207,0.6368 -0.752239,1.61753 -1.011238,2.17939 -1.797675,3.9 -1.746437,3.81306 -2.426931,4.12374 -1.338624,0.61111 -2.219138,0.2518 -2.615297,-1.06722 -0.131898,-0.43907 -0.35482,-0.92329 -0.495414,-1.07603 -0.140581,-0.15279 -0.299138,-0.45554 -0.352383,-0.67287 -0.05327,-0.21734 -0.39032,-0.72369 -0.749058,-1.12519 l -0.652229,-0.73003 0.0064,-1.87152 c 0.0064,-1.94997 0.05965,-2.35745 0.509723,-3.88058 0.245035,-0.82922 0.251325,-0.93999 0.064,-1.1299 -0.179692,-0.18217 -0.246295,-0.18492 -0.494416,-0.0205 -0.15776,0.10457 -0.38171,0.38905 -0.497819,0.63223 -0.24014,0.50299 -3.466411,3.83123 -4.109104,4.23894 -0.617486,0.39177 -1.8935403,0.80813 -2.4768055,0.80813 -1.0611124,0 -1.8541643,-1.15196 -1.9697674,-2.86104 -0.07729,-1.14313 0.057928,-1.7369 0.604664,-2.65439 0.2763452,-0.46376 0.5684922,-0.68037 1.7131508,-1.27029 0.9061261,-0.46698 1.5622701,-0.91151 1.9104441,-1.29453 0.508695,-0.55942 0.533717,-0.6304 0.61108,-1.73408 0.09966,-1.42232 0.522997,-3.38445 0.979435,-4.54029 0.216946,-0.54933 0.689512,-1.2937 1.276463,-2.01053 0.512558,-0.62606 0.932007,-1.21191 0.932111,-1.30178 9.2e-5,-0.0897 0.09254,-0.21583 0.20522,-0.27982 0.25712,-0.14591 1.404247,-1.68377 1.406137,-1.88527 8.06e-4,-0.0821 0.122375,-0.26009 0.270181,-0.3957 0.147765,-0.13562 0.268765,-0.33463 0.268765,-0.44231 0,-0.10763 0.121105,-0.3518 0.269078,-0.54253 0.147932,-0.19073 0.385784,-0.7214 0.528415,-1.17927 0.333148,-1.06963 0.666727,-1.70959 1.306597,-2.50676 0.910925,-1.13494 1.167581,-1.3985 2.12716,-2.18451 0.518334,-0.42459 0.972674,-0.80569 1.009611,-0.84692 0.03698,-0.0412 0.34806,-0.23938 0.69135,-0.44034 0.343283,-0.20097 0.790585,-0.5658 0.99402,-0.81073 0.491255,-0.59152 1.097337,-1.9402 1.279298,-2.84655 0.189962,-0.94631 0.486962,-1.75139 0.77245,-2.0939 0.317641,-0.38105 2.276679,-1.99184 2.866769,-2.35724 0.455492,-0.28203 1.190156,-1.10597 1.190156,-1.33476 0,-0.0553 0.0828,-0.19728 0.184208,-0.31557 0.2907,-0.33933 0.710892,-1.63978 0.805808,-2.49384 0.18965,-1.70666 0.716583,-2.55936 2.500011,-4.04575 0.626198,-0.52191 1.859098,-0.8997 3.430607,-1.05116 0.888946,-0.0856 0.992379,-0.13294 1.881358,-0.8599 0.517381,-0.42311 1.152357,-0.91454 1.410969,-1.0921 0.946516,-0.64967 2.358366,-1.74836 2.606264,-2.02817 0.434747,-0.49062 1.456328,-1.07532 2.298624,-1.31556 0.579043,-0.16514 1.450131,-0.66297 3.090727,-1.7664 3.425779,-2.304 5.972617,-3.83731 10.04928,-6.050284 1.396583,-0.758069 5.257054,-2.584454 7.420123,-3.51034 10.782258,-4.61568 22.760458,-7.433555 34.33442,-8.077519 19.6588,-1.093885 38.82309,3.337836 56.10371,12.974793 6.5753,3.6666 13.56263,8.71477 19.08239,13.78645 0.73905,0.67915 2.61362,2.37269 4.1658,3.7633 2.66643,2.38916 5.27552,5.0905 6.18891,6.40771 0.22587,0.32566 0.88395,1.29233 1.46232,2.14798 0.57834,0.8557 1.74621,2.54141 2.59492,3.74586 1.55009,2.19943 4.06531,5.98603 4.06531,6.12012 0,0.0394 0.36252,0.66102 0.80567,1.38126 5.16401,8.39305 10.0561,20.33423 12.16614,29.696 2.05567,9.1206 2.88494,16.26654 2.88494,24.85867 0,7.71475 -0.6626,14.14766 -2.27344,22.06672 -0.75936,3.7338 -2.55774,10.15189 -3.81668,13.62161 -0.75662,2.08497 -1.17944,3.21866 -1.29536,3.4735 -0.0681,0.14978 -0.43754,1.03863 -0.82066,1.97514 -0.89507,2.18757 -3.73259,8.01819 -4.97165,10.21605 -7.08424,12.5653 -15.9272,22.97392 -26.81551,31.56499 -3.7855,2.9864 -8.71654,6.3319 -12.18295,8.26537 -0.31203,0.17414 -1.14197,0.63815 -1.84411,1.03123 -5.76743,3.22863 -13.45444,6.502 -19.41836,8.26873 -7.64304,2.2642 -13.65293,3.45554 -21.56769,4.27473 -2.17117,0.22475 -13.19409,0.27117 -15.789635,0.0665 z m 48.780089,-60.78745 c -0.62214,-0.0823 -1.83106,-1.00321 -2.28067,-1.73711 l -0.39927,-0.65171 -0.0935,-3.14998 c -0.14498,-4.88838 -0.13145,-24.64131 0.0204,-28.89485 0.0747,-2.09769 0.14995,-6.17389 0.16783,-9.05823 0.0302,-4.79553 0.0132,-5.2819 -0.20522,-5.68489 -0.4715,-0.8746 -1.25724,-0.6903 -2.59598,0.60887 -0.43704,0.42414 -1.67145,1.59809 -2.74319,2.60871 -1.07172,1.01055 -2.46261,2.33465 -3.09083,2.94238 -2.53487,2.45217 -4.06794,3.89971 -5.91705,5.58652 -1.06752,0.97395 -2.36729,2.16919 -2.88831,2.65619 -3.73709,3.49311 -4.26062,3.85913 -5.50632,3.84917 -0.36965,-0.003 -0.94379,-0.1279 -1.27647,-0.27778 -0.61046,-0.275 -3.7228,-2.98471 -5.97996,-5.20671 -0.66529,-0.65476 -1.90498,-1.82174 -2.75495,-2.59339 -0.84991,-0.7716 -2.48257,-2.30358 -3.6283,-3.40451 -1.14553,-1.1008 -2.59694,-2.44891 -3.22514,-2.99562 -0.62819,-0.54672 -2.0191,-1.86059 -3.09083,-2.91963 -3.807444,-3.76277 -5.178196,-5.09437 -5.537394,-5.37955 -0.216823,-0.17213 -0.745322,-1.0708 -1.308279,-2.22454 -0.519449,-1.06468 -1.457271,-2.91646 -2.08411,-4.11514 -0.626809,-1.19868 -1.479111,-2.85368 -1.894168,-3.67771 -0.414943,-0.82408 -1.261031,-2.47904 -1.880205,-3.67771 -0.619176,-1.19868 -2.551981,-5.06036 -4.295163,-8.58142 -1.743182,-3.52117 -3.316896,-6.64721 -3.497388,-6.94688 -0.529642,-0.87984 -1.563634,-3.32262 -1.541794,-3.88331 0.02429,-0.62463 0.444721,-1.41329 0.904033,-1.73554 0.806515,-0.56566 1.457062,-0.71525 3.096506,-0.71186 1.933438,0.003 2.414226,0.1107 3.300726,0.73286 1.601958,1.12413 7.75601,6.52993 10.571222,9.28596 0.849961,0.83205 1.938364,1.87172 2.418834,2.31031 0.48043,0.43861 1.06364,0.9847 1.29611,1.21348 1.07414,1.05756 2.14019,2.05317 3.87759,3.62143 1.03472,0.93404 2.36508,2.16238 2.95633,2.72958 1.45025,1.39125 2.85627,2.69314 3.45854,3.2026 0.27304,0.23095 1.20768,1.08905 2.07706,1.907 1.75662,1.6527 2.53551,2.36417 3.33348,3.04594 0.29573,0.25253 1.02128,0.91725 1.61259,1.47712 1.37976,1.30652 2.1367,1.79362 2.79283,1.79697 0.75663,0.003 1.78308,-0.59256 2.91832,-1.69563 0.5544,-0.53863 1.70329,-1.58571 2.55337,-2.32681 0.84986,-0.74107 3.29892,-2.97441 5.44235,-4.9629 3.94228,-3.65747 5.09957,-4.71135 13.22452,-12.04452 2.4826,-2.24038 5.23944,-4.755 6.12626,-5.58808 3.85584,-3.62143 6.4579,-5.30741 8.46591,-5.48528 1.01233,-0.0279 1.59314,-0.13839 2.56467,0.52715 0.72315,0.71152 1.22515,1.14429 1.53486,3.35568 l 0.0784,1.2682 0.0287,41.25645 -0.0406,41.20501 -0.31713,0.61297 c -0.40859,0.78973 -0.90126,1.32164 -1.52523,1.64701 -0.47394,0.24709 -0.85344,0.25888 -7.65973,0.23816 -3.93858,-0.0114 -7.34254,-0.0458 -7.56417,-0.075 z M 23.179996,207.20248 c -0.515647,-0.0815 -1.121172,-0.84674 -1.377787,-1.74154 -0.421768,-1.47063 -0.496171,-2.2934 -0.448163,-4.9562 l 0.04824,-2.67338 0.507405,-1.48176 c 0.279054,-0.81496 0.603426,-1.63033 0.720823,-1.81187 0.469783,-0.72678 1.377052,-0.0328 1.571929,1.20214 0.05032,0.31878 0.148719,0.64951 0.218638,0.735 0.07001,0.0853 0.18988,1.0496 0.266464,2.14251 0.07665,1.09293 0.227659,2.2826 0.335764,2.64377 0.28085,0.93834 0.269206,3.86705 -0.01882,4.75282 -0.12014,0.36921 -0.316643,0.77254 -0.43674,0.89635 -0.244982,0.25247 -0.842076,0.3782 -1.387552,0.29214 z M 1.8264984,199.94699 c -0.7105756,-0.38533 -0.97602174,-0.86686 -0.87790086,-1.59254 0.0442939,-0.32774 0.17230226,-0.77569 0.28440886,-0.99544 0.2631887,-0.5159 0.2574979,-0.80824 -0.021746,-1.12108 -0.1906033,-0.21349 -0.171714,-0.77227 -0.1946037,-2.01653 L 0.82672483,192.8751 0.49840578,191.66803 0.21922593,190.09262 0,187.68046 c 0.04729267,-2.96602 0.07665951,-3.28693 0.40415933,-4.42394 0.19423628,-0.67427 0.42149457,-1.50172 0.50501005,-1.83887 0.083488,-0.33712 0.24901392,-0.82748 0.36776712,-1.08968 0.1572874,-0.3472 0.229379,-1.01343 0.2654251,-2.45185 0.046346,-1.84999 0.079203,-2.0581 0.5180403,-3.28532 0.4330339,-1.21097 0.5552728,-1.40449 1.6135083,-2.55404 l 1.1450061,-1.24372 h 0.7253381 c 0.6508003,0 0.7335493,0.033 0.8051895,0.32248 0.1169787,0.47254 -0.1491919,1.74533 -0.5401003,2.58301 -0.4046634,0.86706 -0.4244556,1.24466 -0.093963,1.79402 0.1352271,0.22481 0.3461266,0.91285 0.4686174,1.529 0.2909923,1.46391 0.1932286,3.05812 -0.3396061,5.53832 -0.3064795,1.42652 -0.4318893,2.44744 -0.5103756,4.15452 -0.128245,2.78879 -0.1593664,2.9087 -1.5301398,5.88639 -0.4030462,0.87556 -0.419867,1.07559 -0.1534758,1.82532 0.1064995,0.29967 0.1963048,0.98528 0.1995385,1.52354 0.00314,0.53827 0.068722,1.14638 0.1457061,1.35125 0.2367396,0.63115 0.191034,1.53917 -0.097135,1.93051 -0.631617,0.8575 -1.3516427,1.10627 -2.0717207,0.71572 z m 10.5260766,-9.40397 c -0.639545,-0.39428 -0.759936,-0.73997 -0.765196,-2.19755 -0.0032,-1.06375 0.03975,-1.3632 0.230418,-1.57719 0.169919,-0.19083 0.235175,-0.49523 0.235175,-1.09704 0,-0.70628 0.04538,-0.86513 0.298646,-1.04495 0.373857,-0.26542 0.813789,-0.26987 1.303555,-0.0128 0.492221,0.258 0.543891,0.49383 0.546096,2.49227 0.0017,1.6212 -0.0084,1.67832 -0.341067,1.97169 -0.21699,0.19125 -0.335135,0.4285 -0.321726,0.64611 0.03665,0.59463 0.0017,0.67246 -0.388134,0.87708 -0.344658,0.18064 -0.420488,0.17518 -0.797705,-0.0573 z m 6.956973,-15.21655 c -0.429694,-0.16205 -0.715972,-0.63217 -0.776996,-1.27595 -0.05617,-0.59202 -0.0216,-0.69846 0.34703,-1.07216 0.41806,-0.42379 0.993577,-0.5318 1.745596,-0.32761 0.815658,0.22147 0.948501,2.253 0.160971,2.46173 -0.146974,0.0389 -0.267136,0.12499 -0.267136,0.19113 0,0.13016 -0.88064,0.14688 -1.209475,0.0229 z M 5.3689299,167.34974 c -0.5544748,-0.38602 -0.8414667,-0.99441 -0.8414667,-1.78394 0,-0.58058 0.059513,-0.686 0.8838964,-1.56501 0.912834,-0.97339 1.7117868,-2.09476 1.8787341,-2.63696 0.052542,-0.17077 0.1781398,-0.43135 0.2790537,-0.57912 0.1009457,-0.14785 0.1834637,-0.38111 0.1834637,-0.5185 0,-0.1374 0.1948872,-0.43023 0.4330862,-0.65075 0.6203191,-0.57431 1.349857,-0.56175 1.8729587,0.0321 0.281794,0.31994 0.381533,0.57301 0.381533,0.96808 0,0.70657 0.677723,2.12897 1.201389,2.52136 0.359158,0.26914 0.410638,0.38944 0.406921,0.95106 -0.0032,0.49657 -0.08494,0.73597 -0.358389,1.05157 -0.343955,0.3969 -0.389566,0.40886 -1.584845,0.41592 l -1.2306844,0.008 -0.5197731,0.58316 c -1.1669507,1.30934 -2.2228132,1.7349 -2.9860456,1.20359 z" />
  </g>
</svg>
