<svg xmlns="http://www.w3.org/2000/svg" viewBox="0 0 210 210" height="210mm" width="210mm"><path style="fill:#f9f9f9;fill-opacity:1;stroke-width:.13529116" d="M99.2 296.866c-7.592-.599-14.506-1.852-21.365-3.874l-1.613-.473c-1.35-.395-4.852-1.605-5.778-1.997a61 61 0 0 0-1.411-.538 40 40 0 0 1-1.411-.545 69 69 0 0 0-1.142-.485c-2.094-.872-3.546-1.554-6.45-3.027-2.17-1.1-2.99-1.538-4.906-2.612a164 164 0 0 1-2.822-1.684c-.147-.09-.556-.364-.907-.607-.351-.244-.673-.443-.716-.443-.115 0-3.23-2.123-4.123-2.81-.426-.327-.81-.595-.855-.595-.077 0-.417-.263-3.391-2.615-3.37-2.665-5.714-4.782-9.167-8.277-4.293-4.344-8.106-8.894-11.21-13.373-1.4-2.02-1.68-2.46-1.68-2.64 0-.11-.121-.324-.269-.474s-.269-.313-.269-.362-.15-.29-.336-.535c-.185-.246-.336-.53-.336-.63s-.104-.334-.232-.52c-.18-.26-.233-.628-.235-1.644-.002-.719.065-1.455.148-1.635.084-.18.227-.656.32-1.06.092-.402 1.133-2.731 2.313-5.175a2624 2624 0 0 0 7.095-14.796c.534-1.124 1.425-2.994 1.98-4.155 1.002-2.097 2.089-4.393 3.192-6.742.317-.675 1.195-2.514 1.95-4.087a2834 2834 0 0 0 2.35-4.904 2417 2417 0 0 1 2.417-5.04c.793-1.648 1.821-3.793 2.284-4.767s2.86-5.878 5.327-10.897 4.841-9.892 5.277-10.828c.435-.937 1.317-2.806 1.96-4.155a867 867 0 0 0 2.03-4.29c.473-1.012 1.838-3.801 3.034-6.198s2.399-4.88 2.674-5.517c1.163-2.692 3.282-4.538 5.232-4.556 1.092-.009 2.036.474 3.209 1.646l.912.91 3.76 7.709c2.069 4.24 3.818 7.8 3.887 7.912.07.113.163.297.207.409s.552 1.185 1.129 2.384c.576 1.198 1.515 3.16 2.086 4.359.57 1.198 1.657 3.466 2.415 5.04 1.878 3.9 5.422 11.314 6.412 13.416.3.637 2.919 6 5.819 11.919 2.9 5.918 5.59 11.435 5.98 12.26.389.824 1.324 2.785 2.077 4.358a259 259 0 0 1 1.89 4.019c.285.637 1.03 2.169 1.655 3.405 4.26 8.422 4.987 10.049 5.094 11.397.065.82.05.872-.349 1.25-.229.216-.6.431-.826.477-.746.151-15.602.253-17.54.12-2.137-.147-3.452-.522-4.349-1.242-.534-.429-1.086-1.47-3.584-6.757-.424-.9-1.282-2.7-1.905-4.001a149 149 0 0 1-1.647-3.542c-.282-.646-.754-1.696-1.05-2.333s-1.415-3.089-2.487-5.448-2.163-4.759-2.426-5.33a783 783 0 0 0-3.232-6.974c-.488-1.036-.888-1.906-.888-1.933 0-.05-.604-1.363-1.847-4.016a189 189 0 0 1-1.843-4.155c-.646-1.498-1.258-2.917-1.362-3.153s-.189-.473-.189-.525c0-.205-.83-1.147-1.082-1.228-.161-.052-.447.028-.727.204-.406.254-.833 1.048-3.577 6.65-1.714 3.499-3.75 7.68-4.524 9.29-.775 1.61-2.285 4.737-3.358 6.947s-2.22 4.6-2.551 5.312a394 394 0 0 1-1.717 3.61 727 727 0 0 0-1.887 3.95l-1.708 3.61c-3.224 6.801-5.306 11.524-5.434 12.323-.088.552.148.902 2.434 3.604 3.026 3.576 6.023 6.572 9.804 9.8 2.108 1.798 4.816 3.832 5.055 3.795.11-.017.189.039.173.125-.045.24 3.667 2.697 6.815 4.513 2.127 1.227 6.635 3.446 9.033 4.447 5.716 2.387 12.361 4.273 18.025 5.115 1.024.152 1.992.308 2.15.346s1.286.163 2.505.28c6.797.648 13.671.517 18.948-.362 9.65-1.606 14.04-2.86 21.393-6.106.864-.381 1.601-.694 1.638-.694.185 0 4.717-2.239 6.331-3.129 1.817-1 3.77-2.275 7.647-4.989 3.369-2.359 4.896-3.697 9.151-8.018 4.526-4.596 5.94-6.173 8.245-9.2 3.413-4.48 7.255-11.127 9.487-16.413.348-.824.719-1.691.824-1.927s.19-.472.19-.525c0-.052.089-.288.197-.524.265-.579 1.416-3.781 1.416-3.94 0-.069.087-.319.194-.555s.286-.766.397-1.178.332-1.179.49-1.703c.16-.524.462-1.708.673-2.63s.506-2.178.654-2.792c.678-2.81.912-4.573 1.62-12.222.373-4.025.355-7.308-.065-11.893-.184-2.011-.359-3.697-.388-3.746-.028-.049-.122-.763-.207-1.587-.198-1.918-.866-5.48-1.508-8.037-.626-2.492-1.91-6.757-2.133-7.083-.052-.075-.136-.32-.189-.545-.225-.96-2.342-6.071-3.565-8.607-6.552-13.59-16.838-25.283-29.198-33.193l-1.479-.947c-2.09-1.342-3.232-1.98-6.282-3.507-2.731-1.368-3.706-1.822-5.24-2.438a32 32 0 0 1-1.143-.482 6 6 0 0 0-.74-.277 7 7 0 0 1-.738-.27c-1.202-.529-4.77-1.659-7.996-2.532-3.155-.854-8.822-1.835-13.034-2.255-3.497-.35-11.017-.35-14.513 0-4.52.451-9.806 1.365-13.102 2.266-2.23.61-2.828.777-3.023.848-.111.04-1.17.39-2.352.779-1.183.388-2.271.761-2.419.829-.479.218-2.034.817-2.12.817-.165 0-4.625 2.082-6.48 3.024-7.54 3.83-14.753 9.124-20.833 15.292-3.855 3.911-6.74 7.478-9.862 12.197-3.78 5.713-6.19 10.362-8.542 16.482-1.66 4.32-3.41 10.576-3.95 14.124-.06.39-.21.85-.334 1.022-.123.172-.36.512-.525.755-.538.79-1.637.776-2.499-.032l-.513-.481-.083-3.975c-.079-3.755-.069-4.01.18-4.579.145-.332.263-.66.263-.73s.114-.383.254-.698c.26-.585 1.126-3.025 1.291-3.636.107-.393.715-1.99.879-2.306.486-.937 1.474-3.105 1.474-3.233 0-.186.187-.59 1.353-2.906 1.142-2.269 1.508-3.203 1.678-4.283.293-1.856.892-3.327 1.768-4.342.643-.746 3.121-4.304 3.439-4.938.115-.23.304-.498.42-.596s.21-.268.21-.379.17-.425.376-.698.453-.678.547-.9.277-.477.406-.568c.39-.278.993-1.255.909-1.477-.144-.38-.85-.248-1.408.263-.666.61-1.724 1.374-2.264 1.634-1.422.685-3.541 3.496-3.87 5.134-.343 1.7-.857 2.782-3.741 7.87-.725 1.28-1.502 2.74-1.727 3.246-.224.506-.65 1.44-.948 2.077s-.752 1.618-1.011 2.18c-1.798 3.9-1.746 3.813-2.427 4.123-1.339.612-2.219.252-2.615-1.067-.132-.439-.355-.923-.496-1.076a1.8 1.8 0 0 1-.352-.673c-.053-.217-.39-.723-.749-1.125l-.652-.73.006-1.871c.007-1.95.06-2.358.51-3.881.245-.83.251-.94.064-1.13-.18-.182-.246-.185-.495-.02-.157.104-.381.389-.497.632-.24.503-3.467 3.831-4.11 4.239-.617.392-1.893.808-2.476.808-1.061 0-1.854-1.152-1.97-2.861-.077-1.143.058-1.737.605-2.655.276-.463.568-.68 1.713-1.27.906-.467 1.562-.911 1.91-1.294.509-.56.534-.63.611-1.734.1-1.423.523-3.385.98-4.54.217-.55.69-1.294 1.276-2.011.513-.626.932-1.212.932-1.302s.093-.216.206-.28c.257-.146 1.404-1.684 1.406-1.885 0-.082.122-.26.27-.396.148-.135.269-.334.269-.442s.12-.352.269-.543c.148-.19.385-.721.528-1.179.333-1.07.667-1.71 1.307-2.507.91-1.135 1.167-1.398 2.127-2.184a32 32 0 0 0 1.01-.847c.036-.041.348-.24.69-.44.344-.201.791-.566.995-.811.491-.592 1.097-1.94 1.28-2.847.19-.946.486-1.751.772-2.094.317-.38 2.276-1.992 2.866-2.357.456-.282 1.19-1.106 1.19-1.335 0-.055.083-.197.185-.315.29-.34.71-1.64.806-2.494.19-1.707.716-2.56 2.5-4.046.626-.522 1.859-.9 3.43-1.051.89-.086.993-.133 1.881-.86a29 29 0 0 1 1.411-1.092c.947-.65 2.359-1.748 2.607-2.028.434-.49 1.456-1.075 2.298-1.316.58-.165 1.45-.663 3.091-1.766 3.426-2.304 5.973-3.837 10.05-6.05 1.396-.758 5.256-2.585 7.42-3.51 10.782-4.616 22.76-7.434 34.334-8.078 19.659-1.094 38.823 3.338 56.104 12.975 6.575 3.666 13.562 8.714 19.082 13.786.739.68 2.614 2.373 4.166 3.763 2.666 2.39 5.275 5.09 6.189 6.408.226.326.884 1.292 1.462 2.148s1.746 2.541 2.595 3.746c1.55 2.2 4.065 5.986 4.065 6.12 0 .04.363.661.806 1.381 5.164 8.393 10.056 20.334 12.166 29.696 2.056 9.12 2.885 16.267 2.885 24.859 0 7.715-.663 14.148-2.273 22.067-.76 3.733-2.558 10.151-3.817 13.621-.757 2.085-1.18 3.219-1.295 3.474-.069.15-.438 1.038-.821 1.975-.895 2.187-3.733 8.018-4.972 10.216-7.084 12.565-15.927 22.974-26.815 31.565-3.786 2.986-8.717 6.332-12.183 8.265l-1.844 1.031c-5.768 3.23-13.455 6.502-19.419 8.27-7.643 2.263-13.653 3.455-21.567 4.274-2.172.225-13.195.271-15.79.066zm48.78-60.788c-.621-.082-1.83-1.003-2.28-1.737l-.399-.651-.094-3.15c-.144-4.889-.131-24.642.02-28.895.076-2.098.15-6.174.169-9.058.03-4.796.013-5.282-.205-5.685-.472-.875-1.258-.69-2.596.609a374 374 0 0 1-2.744 2.608 428 428 0 0 0-3.09 2.943c-2.535 2.452-4.068 3.9-5.918 5.586a437 437 0 0 0-2.888 2.656c-3.737 3.493-4.26 3.86-5.506 3.85a3.8 3.8 0 0 1-1.277-.278c-.61-.275-3.722-2.985-5.98-5.207a115 115 0 0 0-2.755-2.593c-.85-.772-2.482-2.304-3.628-3.405s-2.597-2.449-3.225-2.996c-.628-.546-2.02-1.86-3.09-2.92-3.808-3.762-5.179-5.094-5.538-5.379-.217-.172-.746-1.07-1.309-2.224a201 201 0 0 0-2.084-4.115 339 339 0 0 1-1.894-3.678 499 499 0 0 0-1.88-3.678c-.62-1.198-2.552-5.06-4.295-8.581s-3.317-6.647-3.498-6.947c-.53-.88-1.563-3.323-1.541-3.883.024-.625.444-1.414.904-1.736.806-.566 1.457-.715 3.096-.712 1.934.003 2.414.11 3.3.733 1.603 1.124 7.757 6.53 10.572 9.286.85.832 1.939 1.872 2.419 2.31.48.439 1.064.985 1.296 1.214 1.074 1.057 2.14 2.053 3.878 3.621a172 172 0 0 1 2.956 2.73c1.45 1.391 2.856 2.693 3.459 3.202.273.231 1.207 1.09 2.077 1.907 1.756 1.653 2.535 2.365 3.333 3.046.296.253 1.021.918 1.613 1.477 1.38 1.307 2.136 1.794 2.793 1.797.756.003 1.783-.592 2.918-1.695a80 80 0 0 1 2.553-2.327c.85-.741 3.3-2.974 5.443-4.963 3.942-3.657 5.1-4.711 13.224-12.044 2.483-2.24 5.24-4.755 6.126-5.588 3.856-3.622 6.458-5.308 8.466-5.486 1.013-.028 1.593-.138 2.565.527.723.712 1.225 1.145 1.535 3.356l.078 1.268.029 41.257-.04 41.205-.318.613c-.408.79-.901 1.321-1.525 1.647-.474.247-.854.259-7.66.238-3.938-.012-7.342-.046-7.564-.075zm-124.8-28.876c-.516-.081-1.121-.846-1.378-1.741-.422-1.47-.496-2.293-.448-4.956l.048-2.674.508-1.481c.279-.815.603-1.63.72-1.812.47-.727 1.378-.033 1.572 1.202.05.319.15.65.22.735s.189 1.05.266 2.142c.076 1.093.227 2.283.335 2.644.281.938.27 3.867-.019 4.753-.12.37-.316.773-.436.896-.245.253-.842.379-1.388.292m-21.354-7.255c-.71-.385-.976-.867-.877-1.593.044-.327.172-.775.284-.995.263-.516.258-.808-.022-1.121-.19-.214-.171-.772-.194-2.017l-.19-1.346-.329-1.207-.279-1.575L0 187.68c.047-2.966.077-3.286.404-4.423.194-.675.422-1.502.505-1.84.084-.336.25-.827.368-1.089.157-.347.23-1.013.265-2.452.047-1.85.08-2.058.518-3.285.433-1.211.556-1.405 1.614-2.554l1.145-1.244h.725c.651 0 .734.033.805.323.117.472-.149 1.745-.54 2.583-.404.867-.424 1.244-.094 1.794.136.224.347.912.469 1.529.291 1.463.193 3.058-.34 5.538-.306 1.426-.431 2.447-.51 4.154-.128 2.79-.16 2.91-1.53 5.887-.403.875-.42 1.075-.154 1.825.107.3.197.985.2 1.524.003.538.069 1.146.146 1.35.236.632.19 1.54-.097 1.931-.632.858-1.352 1.107-2.072.716zm10.527-9.404c-.64-.394-.76-.74-.766-2.198-.003-1.063.04-1.363.23-1.577.17-.19.236-.495.236-1.097 0-.706.045-.865.299-1.045.373-.265.813-.27 1.303-.013.492.258.544.494.546 2.493.002 1.621-.008 1.678-.34 1.971-.218.192-.336.429-.323.647.037.594.002.672-.388.877-.344.18-.42.175-.797-.058m6.957-15.217c-.43-.162-.716-.632-.777-1.275-.057-.592-.022-.699.347-1.073.418-.423.993-.531 1.745-.327.816.221.949 2.253.161 2.461-.147.04-.267.125-.267.192 0 .13-.88.146-1.21.023m-13.94-7.977c-.555-.386-.842-.995-.842-1.784 0-.58.06-.686.884-1.565.913-.974 1.712-2.095 1.88-2.637.052-.17.177-.432.278-.58s.184-.38.184-.518c0-.137.194-.43.433-.65.62-.575 1.35-.562 1.873.032.281.32.381.573.381.968 0 .706.678 2.129 1.202 2.521.359.27.41.39.406.951-.003.497-.084.736-.358 1.052-.344.397-.39.408-1.585.416l-1.23.008-.52.583c-1.167 1.31-2.223 1.735-2.986 1.203" transform="translate(0 -87)"/></svg>